<?xml version="1.0" encoding="utf-8"?>
<!-- Generator: Adobe Illustrator 26.0.1, SVG Export Plug-In . SVG Version: 6.00 Build 0)  -->
<svg version="1.1" id="Layer_1" xmlns="http://www.w3.org/2000/svg" xmlns:xlink="http://www.w3.org/1999/xlink" x="0px" y="0px"
	 viewBox="0 0 6120.7 2151.8" style="enable-background:new 0 0 6120.7 2151.8;" xml:space="preserve">
<style type="text/css">
	.st0{fill:url(#SVGID_1_);}
	.st1{fill:url(#SVGID_00000183935096722579150560000004950124534004025775_);}
	.st2{fill:url(#SVGID_00000149358769929765955510000013658070431005623475_);}
	.st3{fill:url(#SVGID_00000153665662254616570480000004632697391217053363_);}
	.st4{fill:url(#SVGID_00000145051440565510550020000016207805668128083867_);}
	.st5{fill:url(#SVGID_00000005951140611355402870000013732695672417560965_);}
	.st6{fill:url(#SVGID_00000130641419151512963090000004980270740856171695_);}
	.st7{fill:url(#SVGID_00000127759264642272269040000015307721388314499457_);}
	.st8{fill:url(#SVGID_00000067953436766603005690000000530715892984566923_);}
	.st9{fill:url(#SVGID_00000138556667852099124510000003283146887300446621_);}
	.st10{fill:url(#SVGID_00000183222847484962041670000017954331037236520610_);}
	.st11{fill:url(#LOGOMARK_00000000181439658402241070000000864210864474021004_);}
</style>
<g>
	<path d="M1134.1,207.8c-479.4,0-868.1,388.7-868.1,868.1S654.6,1944,1134.1,1944s868.1-388.7,868.1-868.1
		S1613.5,207.8,1134.1,207.8z"/>
	<g>
		<g>
			<g>
				
					<linearGradient id="SVGID_1_" gradientUnits="userSpaceOnUse" x1="2745.4761" y1="1061.9846" x2="2302.1287" y2="1829.8842" gradientTransform="matrix(1 0 0 -1 0 2151.7888)">
					<stop  offset="0" style="stop-color:#ECCA5A"/>
					<stop  offset="1" style="stop-color:#85631F"/>
				</linearGradient>
				<path class="st0" d="M2148.6,410.6h219.5v344.5c0,52.4,1.4,88.8,4.2,109c2.8,22.4,7.8,40.8,15.1,55.4
					c7.7,17.5,22.2,31.4,43.5,41.5c21.8,9.2,47.4,13.8,76.8,13.8s54.8-4.6,76.2-13.8c21-9.8,35.7-23.7,44.1-41.5
					c6.9-14.6,11.9-33,15.1-55.4c2.8-20.2,4.2-56.6,4.2-109v-48.2V410.6h218.3V785c0,79.2-5.2,136.6-15.7,172
					c-11.3,37.8-29.2,69.2-53.8,94.3c-28.6,29.2-66.5,50.7-113.7,64.8c-48,14.3-106.2,21.4-174.8,21.4c-69.3,0-127.8-7.1-175.4-21.4
					c-48-14-85.8-35.6-113.7-64.8c-25-25-42.9-56.4-53.8-94.3c-10.9-36.9-16.3-94.3-16.3-172v-73.7V410.6H2148.6z"/>
				
					<linearGradient id="SVGID_00000033338712826613001080000011539231706420373124_" gradientUnits="userSpaceOnUse" x1="3529.1226" y1="952.6069" x2="3033.884" y2="1810.3844" gradientTransform="matrix(1 0 0 -1 0 2151.7888)">
					<stop  offset="0" style="stop-color:#ECCA5A"/>
					<stop  offset="1" style="stop-color:#85631F"/>
				</linearGradient>
				<path style="fill:url(#SVGID_00000033338712826613001080000011539231706420373124_);" d="M2914,1118.7V410.6h217.7v321.7
					l254.5-321.7h256.4l-298.1,345.3l324.1,362.8h-274.4l-262.4-318v318H2914z"/>
				
					<linearGradient id="SVGID_00000093884779217027773380000008940495767653997724_" gradientUnits="userSpaceOnUse" x1="4332.8071" y1="977.4655" x2="3868.2517" y2="1782.0997" gradientTransform="matrix(1 0 0 -1 0 2151.7888)">
					<stop  offset="0" style="stop-color:#ECCA5A"/>
					<stop  offset="1" style="stop-color:#85631F"/>
				</linearGradient>
				<path style="fill:url(#SVGID_00000093884779217027773380000008940495767653997724_);" d="M4429.1,1118.7h-712.2l406.9-554.4
					h-326.5V410.6h678.3L4070,964.1h359.2V1118.7z"/>
				
					<linearGradient id="SVGID_00000076563280376546043370000008438843331007050139_" gradientUnits="userSpaceOnUse" x1="4986.0044" y1="1014.6509" x2="4555.9155" y2="1759.5873" gradientTransform="matrix(1 0 0 -1 0 2151.7888)">
					<stop  offset="0" style="stop-color:#ECCA5A"/>
					<stop  offset="1" style="stop-color:#85631F"/>
				</linearGradient>
				<path style="fill:url(#SVGID_00000076563280376546043370000008438843331007050139_);" d="M4524,1118.7V410.6h493.9v155H4738
					v122.8h263.6v152H4738v119.7h279.9v158.6H4524z"/>
				
					<linearGradient id="SVGID_00000103222919324348452690000002439229713085152674_" gradientUnits="userSpaceOnUse" x1="5712.4033" y1="950.8933" x2="5208.6934" y2="1823.3444" gradientTransform="matrix(1 0 0 -1 0 2151.7888)">
					<stop  offset="0" style="stop-color:#ECCA5A"/>
					<stop  offset="1" style="stop-color:#85631F"/>
				</linearGradient>
				<path style="fill:url(#SVGID_00000103222919324348452690000002439229713085152674_);" d="M5066.3,1118.7V410.6h212.2
					l304.7,364.1c6,8.6,15.7,23.6,29,44.6c6,11.6,12.8,24.1,20.3,37.3c7.5,13.2,15.2,27.4,23.3,42.7c-4.5-28.6-7.5-54.6-9-78.2
					c-2.1-18.7-3-39-3-60.7V410.6h211v708.1h-211l-304.7-365.9c-6-6.5-15.9-21.4-29.7-44.6c-6.9-11-13.8-23.1-20.8-36.4
					c-7.1-13.2-14.6-27.4-22.7-42.7c2,15.2,3.9,29.3,5.4,42.4c1.6,13.1,3,25.3,4.2,36.6c2,19.1,3,39.3,3,60.7v349.8L5066.3,1118.7
					L5066.3,1118.7z"/>
			</g>
			<g>
				
					<linearGradient id="SVGID_00000050664613056594123390000002507164563352721064_" gradientUnits="userSpaceOnUse" x1="2858.2778" y1="393.8626" x2="2569.8616" y2="893.4156" gradientTransform="matrix(1 0 0 -1 0 2151.7888)">
					<stop  offset="0" style="stop-color:#ECCA5A"/>
					<stop  offset="1" style="stop-color:#85631F"/>
				</linearGradient>
				<path style="fill:url(#SVGID_00000050664613056594123390000002507164563352721064_);" d="M2704,1574v-108.7h316.5
					c0.6,4.8,0.9,8.8,0.9,11.8c0,2.2,0,4.9,0,8c0,3.2,0,6.7,0,10.7c0,90-26.9,159.3-80.7,208c-54.1,49.4-129.6,74.1-226.5,74.1
					c-47.3,0-89.9-6.4-127.7-19c-37.2-12.6-70.5-32-99.8-58c-28.1-24.4-50-53.8-65.6-88.1c-15.4-34.7-23-70.4-23-106.8
					c0-38.4,7.6-74.1,22.6-106.8c14.8-31.9,37.2-61.1,67.4-87.8c29.2-24.9,63.2-44,102-57.3c38.4-13.1,79.8-19.7,124.1-19.7
					c57.6,0,108.8,10.1,153.3,30.1c44.3,20.3,81.9,50.2,112.6,89.8l-139.7,59c-16.9-19.9-35.6-34.8-56.3-44.9
					c-21-9.8-44.3-14.7-70-14.7c-48.2,0-86.2,14.1-114,42.2c-27.5,28.6-41.2,67.3-41.2,115.9c0,49.4,13.8,88.2,41.2,116.6
					c27.8,28.4,65.8,42.6,114,42.6c40.8,0,74.9-8.9,102.4-26.5c26.9-17.7,42.8-41.2,47.9-70.4L2704,1574L2704,1574z"/>
				
					<linearGradient id="SVGID_00000079459107422368711310000010472240356700226217_" gradientUnits="userSpaceOnUse" x1="3319.8823" y1="329.7618" x2="3004.7671" y2="875.5575" gradientTransform="matrix(1 0 0 -1 0 2151.7888)">
					<stop  offset="0" style="stop-color:#ECCA5A"/>
					<stop  offset="1" style="stop-color:#85631F"/>
				</linearGradient>
				<path style="fill:url(#SVGID_00000079459107422368711310000010472240356700226217_);" d="M3056.8,1765.4v-519.2h160.9v397.9
					h200.4v121.2L3056.8,1765.4L3056.8,1765.4z"/>
				
					<linearGradient id="SVGID_00000018916246219150246580000014688933030562437031_" gradientUnits="userSpaceOnUse" x1="3879.8794" y1="399.1121" x2="3595.9648" y2="890.8649" gradientTransform="matrix(1 0 0 -1 0 2151.7888)">
					<stop  offset="0" style="stop-color:#ECCA5A"/>
					<stop  offset="1" style="stop-color:#85631F"/>
				</linearGradient>
				<path style="fill:url(#SVGID_00000018916246219150246580000014688933030562437031_);" d="M4053.8,1506.9
					c0,37.3-7.8,72.2-23.5,104.8c-15.7,32.9-38.4,62.1-68.3,87.5c-29.8,25.4-64.2,45.1-103.3,59.3c-38.7,13.8-79,20.6-120.6,20.6
					c-42.6,0-83.1-6.9-121.4-20.6c-39.3-14.2-73.3-34-102-59.3c-30.4-25.3-53.5-54.6-69.1-87.8c-15.7-32.1-23.5-66.9-23.5-104.5
					c0-37.6,7.8-72.5,23.5-104.8c15.4-32.5,38.4-61.8,69.1-87.8c29-25.3,63-45,102-59c38.1-13.9,78.6-21,121.4-21
					c42,0,82.3,7,121,21c38.7,13.8,73,33.4,102.9,59c29.2,25.4,52,54.5,68.3,87.5C4046,1435.2,4053.8,1470.2,4053.8,1506.9z
					 M3738.2,1659.3c44.6,0,81.5-14.4,110.9-43.3c29-28.4,43.4-64.8,43.4-109.1c0-43.7-14.8-80.1-44.3-109.1
					c-29.2-29.1-65.9-43.6-109.9-43.6c-44.9,0-81.9,14.5-110.9,43.6c-29.2,28.8-43.9,65.2-43.9,109.1c0,44.8,14.4,81.3,43,109.4
					C3655.2,1644.9,3692.3,1659.3,3738.2,1659.3z"/>
				
					<linearGradient id="SVGID_00000060018509381669737440000006186808479699932574_" gradientUnits="userSpaceOnUse" x1="4430.1587" y1="385.6739" x2="4119.8081" y2="923.218" gradientTransform="matrix(1 0 0 -1 0 2151.7888)">
					<stop  offset="0" style="stop-color:#ECCA5A"/>
					<stop  offset="1" style="stop-color:#85631F"/>
				</linearGradient>
				<path style="fill:url(#SVGID_00000060018509381669737440000006186808479699932574_);" d="M4089.3,1765.4v-519.2h162.3
					c65.6,0,112.2,1.9,139.7,5.6c26.3,4,49,10.5,68.3,19.6c21.8,10.7,38.5,25,50.1,42.9c11.5,18.6,17.3,39.1,17.3,61.6
					c0,29.5-8.6,53-25.7,70.4c-17.5,17.5-44.8,30.7-82,39.6c42,3.1,74.7,15.9,98.4,38.6c23.9,23.4,35.9,54.2,35.9,92.4
					c0,27.7-6.6,52.1-20,73c-13.6,21-32.8,37.3-57.6,49.1c-20.7,9.6-45.4,16.3-74.1,20c-31.6,4.1-80.2,6.2-145.9,6.2h-166.7V1765.4z
					 M4238.7,1453.9h32.3c39.9,0,67.3-4,82-11.8c14.8-7.4,22.2-20.7,22.2-40c0-19.4-7-33.1-20.8-40.9c-14.2-8.1-41.1-12.1-80.7-12.1
					h-35L4238.7,1453.9L4238.7,1453.9z M4238.7,1659.3h56.8c37.8,0,64.8-4.1,81.1-12.5c16-8.5,23.9-22.6,23.9-42.2
					c0-21.2-7.2-36.4-21.8-45.5c-14.8-8.5-41.8-12.8-81.1-12.8h-59L4238.7,1659.3L4238.7,1659.3z"/>
				
					<linearGradient id="SVGID_00000140693491194604419590000004330817280326473390_" gradientUnits="userSpaceOnUse" x1="4969.5493" y1="275.0089" x2="4643.2163" y2="840.2341" gradientTransform="matrix(1 0 0 -1 0 2151.7888)">
					<stop  offset="0" style="stop-color:#ECCA5A"/>
					<stop  offset="1" style="stop-color:#85631F"/>
				</linearGradient>
				<path style="fill:url(#SVGID_00000140693491194604419590000004330817280326473390_);" d="M4552.6,1765.4l203.9-519.2h201.7
					l204.3,519.2h-160.1l-30.2-93.1h-228.8l-30.6,93.1H4552.6z M4778.2,1571.1h160.5l-60.3-171c-2.4-7-4.9-15.4-7.6-25.2
					c-1.8-5.7-3.7-12.2-5.8-19.7c-2.1-7.4-4.3-15.7-6.6-24.9c-3.5,12.9-7.1,25-10.7,36.4c-2.1,7.8-5.5,19-10.2,33.4L4778.2,1571.1z"
					/>
				
					<linearGradient id="SVGID_00000088118641436290956480000013160088431518949532_" gradientUnits="userSpaceOnUse" x1="5461.0645" y1="329.7617" x2="5145.9487" y2="875.5573" gradientTransform="matrix(1 0 0 -1 0 2151.7888)">
					<stop  offset="0" style="stop-color:#ECCA5A"/>
					<stop  offset="1" style="stop-color:#85631F"/>
				</linearGradient>
				<path style="fill:url(#SVGID_00000088118641436290956480000013160088431518949532_);" d="M5198,1765.4v-519.2h160.9v397.9h200.4
					v121.2L5198,1765.4L5198,1765.4z"/>
			</g>
		</g>
		
			<linearGradient id="LOGOMARK_00000086662176055522188570000007616575551204052108_" gradientUnits="userSpaceOnUse" x1="1568.2214" y1="323.9333" x2="699.9392" y2="1827.8428" gradientTransform="matrix(1 0 0 -1 0 2151.7888)">
			<stop  offset="0" style="stop-color:#ECCA5A"/>
			<stop  offset="1" style="stop-color:#85631F"/>
		</linearGradient>
		<path id="LOGOMARK" style="fill:url(#LOGOMARK_00000086662176055522188570000007616575551204052108_);" d="M1134.1,207.8
			c-479.4,0-868.1,388.7-868.1,868.1S654.6,1944,1134.1,1944s868.1-388.7,868.1-868.1S1613.5,207.8,1134.1,207.8z M1602.7,1768.9
			h-99.3v-69H1637v44.5C1625.8,1752.9,1614.3,1761,1602.7,1768.9z M1421.9,1861.6v-63.4h133.6v0.5
			C1513.2,1823.4,1468.5,1844.5,1421.9,1861.6z M1718.4,1601.7v69h-133.6v-69H1718.4z M1666.2,1572.5v-69h52.2v69H1666.2z
			 M1718.4,1474.2h-133.7v-69h133.7V1474.2z M1637,1503.5v69h-133.6v-69H1637z M1555.6,1474.2h-133.6v-69h133.6V1474.2z
			 M1474.1,1503.5v69h-52.2v-69H1474.1z M1555.6,1601.7v69h-133.6v-69H1555.6z M1474.1,1699.9v69h-52.2v-69H1474.1z M1666.2,1699.9
			h25c-8.2,7.3-16.5,14.5-25,21.4V1699.9z M1733,1376h-325.7c-8.1,0-14.6,6.6-14.6,14.6v481.1c-81.4,26.4-168.4,40.8-258.6,40.8
			c-32.4,0-64.3-1.8-95.8-5.4V953.2l517.3-217.4v207.3l-42.5,42.5c-2.8,2.8-4.3,6.5-4.3,10.3s1.5,7.6,4.3,10.3l42.5,42.5v31.7
			c0,8.1,6.6,14.6,14.6,14.6c10.7,0,19.5,8.8,19.5,19.5c0,10.7-8.8,19.5-19.5,19.5c-10.8,0-19.5-8.8-19.5-19.5
			c0-8.1-6.6-14.6-14.6-14.6c-8,0-14.6,6.6-14.6,14.6c0,18,9.9,33.8,24.5,42.2l-36.4,48.7h-148.4c-8.1,0-14.6,6.6-14.6,14.6v98.2
			c0,8.1,6.6,14.6,14.6,14.6h418.1c8.1,0,14.6-6.6,14.6-14.6v-98.2c0-8.1-6.6-14.6-14.6-14.6h-148.4l-36.4-48.7
			c14.6-8.4,24.5-24.2,24.5-42.2c0-21.8-14.4-40.3-34.1-46.5v-19.3l42.5-42.5c5.7-5.7,5.7-14.9,0-20.7l-42.5-42.5V723.5
			c0,0,47.2-19.8,47.3-19.9c3.6-1.5,6.6-4.6,8-8.3l68.4-167.6c2-4.8,1.1-10.6-2.1-14.6c-4-5-11.2-6.8-17.1-4.4l-668.6,280.9
			l-115-115l0,0c-4.7-4.7-12.8-5.5-18.4-1.8c-4,2.7-6.5,7.3-6.5,12.1v163.5L598.4,967.1l-36.1-85.9c-3.1-7.4-11.7-10.9-19.1-7.8
			l-192.6,80.9c-7.4,3.1-10.9,11.7-7.8,19.1l133.2,317c2.4,5.6,7.8,9,13.5,9c1.9,0,3.8-0.3,5.6-1.1l192.6-80.9
			c3.6-1.5,6.4-4.4,7.9-8c1.5-3.6,1.4-7.6,0-11.2l-36.1-85.9l221.4-93v854c-338.2-107.3-583.2-423.7-583.2-797.5
			c0-462,374.5-836.5,836.5-836.5s836.5,374.5,836.5,836.5c0,219.6-84.6,419.3-223,568.6v-253.9
			C1747.6,1382.5,1741.1,1376,1733,1376z M634.5,1053.3l-24.9-59.2l13.1-5.5l30.4,72.3L634.5,1053.3z M662.8,1196.1l-165.7,69.6
			l-121.9-290L541,906.1L662.8,1196.1z M649.7,977.3L722,947l-41.9,102.7L649.7,977.3z M749,958l30.4,72.3l-72.3,30.4L749,958z
			 M775.9,946.7l102.7,41.9l-72.3,30.4L775.9,946.7z M787,919.6l72.3-30.4l21.5,51.2v17.5L787,919.6z M988.4,1341.1l-78.4,78.4
			v-78.4L988.4,1341.1L988.4,1341.1z M910,1311.9v-78.4l78.4,78.4H910z M988.4,1597.6l-78.4,78.4v-78.4H988.4z M910,1568.4V1490
			l78.4,78.4H910z M930.6,1725.9h78.4v78.4L930.6,1725.9z M988.4,1825H910v-78.4L988.4,1825z M930.6,1696.7l78.4-78.4v78.4H930.6z
			 M930.6,1469.3h78.4v78.4L930.6,1469.3z M930.6,1440.1l78.4-78.4v78.4H930.6z M930.6,1212.8h78.4v78.4L930.6,1212.8z
			 M930.6,1183.6l78.4-78.4v78.4H930.6z M910,1162.9v-78.4h78.4L910,1162.9z M930.6,927l78.4-78.4V927H930.6z M1009.1,956.2v78.4
			l-78.4-78.4H1009.1z M988.4,828L910,906.4V828H988.4z M910,798.7v-78.4l78.4,78.4H910z M988.4,1055.3H910v-78.4L988.4,1055.3z
			 M910,1882v-27.9h78.4l-38,38C936.8,1889.1,923.3,1885.8,910,1882z M984.8,1899.1l24.3-24.3v28.3
			C1000.9,1901.9,992.8,1900.6,984.8,1899.1z M1599.2,663.4l-102.7-41.9l72.3-30.4L1599.2,663.4z M1595.8,579.7l72.3-30.4
			L1626.2,652L1595.8,579.7z M1588.2,690.4l-72.3,30.4l-30.4-72.3L1588.2,690.4z M1489,732.1l-72.3,30.4l41.9-102.7L1489,732.1z
			 M1389.6,751.4l-30.4-72.3l72.3-30.4L1389.6,751.4z M1362.7,762.7L1260,720.8l72.3-30.4L1362.7,762.7z M1351.6,789.8l-72.3,30.4
			l-30.4-72.3L1351.6,789.8z M1252.4,831.5l-72.3,30.4l41.9-102.7L1252.4,831.5z M1153.1,850.8l-30.4-72.3l72.3-30.4L1153.1,850.8z
			 M1126.2,862.1l-87.9-35.9V814l57.5-24.2L1126.2,862.1z M1570.1,969.8l26.2,26.2l-26.2,26.2L1544,996L1570.1,969.8z
			 M1545.9,1205.5l24.2-32.4l24.2,32.4H1545.9z M1764.6,1234.8v69h-388.9v-69H1764.6z M1038.3,857.8v63.7l76.8-32.3L1038.3,857.8z"
			/>
	</g>
</g>
</svg>
